<svg width="45" height="45" viewBox="0 0 45 45" fill="none" xmlns="http://www.w3.org/2000/svg">
<path d="M33.75 28.125C34.7855 28.125 35.625 27.2855 35.625 26.25C35.625 25.2145 34.7855 24.375 33.75 24.375C32.7145 24.375 31.875 25.2145 31.875 26.25C31.875 27.2855 32.7145 28.125 33.75 28.125Z" fill="#3183FF"/>
<path fill-rule="evenodd" clip-rule="evenodd" d="M30 3.75H7.5C4.3934 3.75 1.875 6.2684 1.875 9.375V35.625C1.875 38.7316 4.3934 41.25 7.5 41.25H37.5C40.6066 41.25 43.125 38.7316 43.125 35.625V16.875C43.125 13.7684 40.6066 11.25 37.5 11.25H35.625V9.375C35.625 6.2684 33.1066 3.75 30 3.75ZM7.5 7.5C6.46447 7.5 5.625 8.33947 5.625 9.375C5.625 10.4105 6.46447 11.25 7.5 11.25H31.875V9.375C31.875 8.33947 31.0355 7.5 30 7.5H7.5ZM7.5 15C6.84256 15 6.21146 14.8872 5.625 14.6799V35.625C5.625 36.6605 6.46447 37.5 7.5 37.5H37.5C38.5355 37.5 39.375 36.6605 39.375 35.625V16.875C39.375 15.8395 38.5355 15 37.5 15H7.5Z" fill="#3183FF"/>
</svg>
