<svg width="30" height="30" viewBox="0 0 30 30" fill="none" xmlns="http://www.w3.org/2000/svg">
<path d="M15 0L18.7189 2.33469L23.1096 2.3812L24.9759 6.35584L28.6445 8.76877L28.0656 13.1214L29.8473 17.1347L27.0071 20.4835L26.3362 24.8229L22.1365 26.1045L19.226 29.3924L15 28.2L10.774 29.3924L7.86354 26.1045L3.66376 24.8229L2.99286 20.4835L0.152678 17.1347L1.93436 13.1214L1.35552 8.76877L5.02411 6.35584L6.89039 2.3812L11.2811 2.33469L15 0Z" fill="#3183FF"/>
<path d="M9.35487 12.9526L15 18.6846L13.3871 20.3223L7.74197 14.5903L9.35487 12.9526Z" fill="white"/>
<path d="M22.2581 11.3149L13.3871 20.3223L11.7742 18.6846L20.6452 9.67719L22.2581 11.3149Z" fill="white"/>
</svg>
