<svg width="223" height="455" viewBox="0 0 223 455" fill="none" xmlns="http://www.w3.org/2000/svg">
<rect x="1" y="1" width="209" height="311" rx="104.5" stroke="#3183FF" stroke-width="2"/>
<rect x="1" y="143" width="209" height="311" rx="104.5" stroke="#FF6231" stroke-width="2"/>
<path d="M79.3438 47.9727V50H67.9883C67.9727 49.4922 68.0547 49.0039 68.2344 48.5352C68.5234 47.7617 68.9844 47 69.6172 46.25C70.2578 45.5 71.1797 44.6328 72.3828 43.6484C74.25 42.1172 75.5117 40.9062 76.168 40.0156C76.8242 39.1172 77.1523 38.2695 77.1523 37.4727C77.1523 36.6367 76.8516 35.9336 76.25 35.3633C75.6562 34.7852 74.8789 34.4961 73.918 34.4961C72.9023 34.4961 72.0898 34.8008 71.4805 35.4102C70.8711 36.0195 70.5625 36.8633 70.5547 37.9414L68.3867 37.7188C68.5352 36.1016 69.0938 34.8711 70.0625 34.0273C71.0312 33.1758 72.332 32.75 73.9648 32.75C75.6133 32.75 76.918 33.207 77.8789 34.1211C78.8398 35.0352 79.3203 36.168 79.3203 37.5195C79.3203 38.207 79.1797 38.8828 78.8984 39.5469C78.6172 40.2109 78.1484 40.9102 77.4922 41.6445C76.8438 42.3789 75.7617 43.3867 74.2461 44.668C72.9805 45.7305 72.168 46.4531 71.8086 46.8359C71.4492 47.2109 71.1523 47.5898 70.918 47.9727H79.3438ZM81.6172 41.5273C81.6172 39.4961 81.8242 37.8633 82.2383 36.6289C82.6602 35.3867 83.2812 34.4297 84.1016 33.7578C84.9297 33.0859 85.9688 32.75 87.2188 32.75C88.1406 32.75 88.9492 32.9375 89.6445 33.3125C90.3398 33.6797 90.9141 34.2148 91.3672 34.918C91.8203 35.6133 92.1758 36.4648 92.4336 37.4727C92.6914 38.4727 92.8203 39.8242 92.8203 41.5273C92.8203 43.543 92.6133 45.1719 92.1992 46.4141C91.7852 47.6484 91.1641 48.6055 90.3359 49.2852C89.5156 49.957 88.4766 50.293 87.2188 50.293C85.5625 50.293 84.2617 49.6992 83.3164 48.5117C82.1836 47.082 81.6172 44.7539 81.6172 41.5273ZM83.7852 41.5273C83.7852 44.3477 84.1133 46.2266 84.7695 47.1641C85.4336 48.0938 86.25 48.5586 87.2188 48.5586C88.1875 48.5586 89 48.0898 89.6562 47.1523C90.3203 46.2148 90.6523 44.3398 90.6523 41.5273C90.6523 38.6992 90.3203 36.8203 89.6562 35.8906C89 34.9609 88.1797 34.4961 87.1953 34.4961C86.2266 34.4961 85.4531 34.9062 84.875 35.7266C84.1484 36.7734 83.7852 38.707 83.7852 41.5273ZM101.656 41.5273C101.656 39.4961 101.863 37.8633 102.277 36.6289C102.699 35.3867 103.32 34.4297 104.141 33.7578C104.969 33.0859 106.008 32.75 107.258 32.75C108.18 32.75 108.988 32.9375 109.684 33.3125C110.379 33.6797 110.953 34.2148 111.406 34.918C111.859 35.6133 112.215 36.4648 112.473 37.4727C112.73 38.4727 112.859 39.8242 112.859 41.5273C112.859 43.543 112.652 45.1719 112.238 46.4141C111.824 47.6484 111.203 48.6055 110.375 49.2852C109.555 49.957 108.516 50.293 107.258 50.293C105.602 50.293 104.301 49.6992 103.355 48.5117C102.223 47.082 101.656 44.7539 101.656 41.5273ZM103.824 41.5273C103.824 44.3477 104.152 46.2266 104.809 47.1641C105.473 48.0938 106.289 48.5586 107.258 48.5586C108.227 48.5586 109.039 48.0898 109.695 47.1523C110.359 46.2148 110.691 44.3398 110.691 41.5273C110.691 38.6992 110.359 36.8203 109.695 35.8906C109.039 34.9609 108.219 34.4961 107.234 34.4961C106.266 34.4961 105.492 34.9062 104.914 35.7266C104.188 36.7734 103.824 38.707 103.824 41.5273ZM115.027 45.4648L117.137 45.1836C117.379 46.3789 117.789 47.2422 118.367 47.7734C118.953 48.2969 119.664 48.5586 120.5 48.5586C121.492 48.5586 122.328 48.2148 123.008 47.5273C123.695 46.8398 124.039 45.9883 124.039 44.9727C124.039 44.0039 123.723 43.207 123.09 42.582C122.457 41.9492 121.652 41.6328 120.676 41.6328C120.277 41.6328 119.781 41.7109 119.188 41.8672L119.422 40.0156C119.562 40.0312 119.676 40.0391 119.762 40.0391C120.66 40.0391 121.469 39.8047 122.188 39.3359C122.906 38.8672 123.266 38.1445 123.266 37.168C123.266 36.3945 123.004 35.7539 122.48 35.2461C121.957 34.7383 121.281 34.4844 120.453 34.4844C119.633 34.4844 118.949 34.7422 118.402 35.2578C117.855 35.7734 117.504 36.5469 117.348 37.5781L115.238 37.2031C115.496 35.7891 116.082 34.6953 116.996 33.9219C117.91 33.1406 119.047 32.75 120.406 32.75C121.344 32.75 122.207 32.9531 122.996 33.3594C123.785 33.7578 124.387 34.3047 124.801 35C125.223 35.6953 125.434 36.4336 125.434 37.2148C125.434 37.957 125.234 38.6328 124.836 39.2422C124.438 39.8516 123.848 40.3359 123.066 40.6953C124.082 40.9297 124.871 41.418 125.434 42.1602C125.996 42.8945 126.277 43.8164 126.277 44.9258C126.277 46.4258 125.73 47.6992 124.637 48.7461C123.543 49.7852 122.16 50.3047 120.488 50.3047C118.98 50.3047 117.727 49.8555 116.727 48.957C115.734 48.0586 115.168 46.8945 115.027 45.4648ZM128.387 45.4648L130.496 45.1836C130.738 46.3789 131.148 47.2422 131.727 47.7734C132.312 48.2969 133.023 48.5586 133.859 48.5586C134.852 48.5586 135.688 48.2148 136.367 47.5273C137.055 46.8398 137.398 45.9883 137.398 44.9727C137.398 44.0039 137.082 43.207 136.449 42.582C135.816 41.9492 135.012 41.6328 134.035 41.6328C133.637 41.6328 133.141 41.7109 132.547 41.8672L132.781 40.0156C132.922 40.0312 133.035 40.0391 133.121 40.0391C134.02 40.0391 134.828 39.8047 135.547 39.3359C136.266 38.8672 136.625 38.1445 136.625 37.168C136.625 36.3945 136.363 35.7539 135.84 35.2461C135.316 34.7383 134.641 34.4844 133.812 34.4844C132.992 34.4844 132.309 34.7422 131.762 35.2578C131.215 35.7734 130.863 36.5469 130.707 37.5781L128.598 37.2031C128.855 35.7891 129.441 34.6953 130.355 33.9219C131.27 33.1406 132.406 32.75 133.766 32.75C134.703 32.75 135.566 32.9531 136.355 33.3594C137.145 33.7578 137.746 34.3047 138.16 35C138.582 35.6953 138.793 36.4336 138.793 37.2148C138.793 37.957 138.594 38.6328 138.195 39.2422C137.797 39.8516 137.207 40.3359 136.426 40.6953C137.441 40.9297 138.23 41.418 138.793 42.1602C139.355 42.8945 139.637 43.8164 139.637 44.9258C139.637 46.4258 139.09 47.6992 137.996 48.7461C136.902 49.7852 135.52 50.3047 133.848 50.3047C132.34 50.3047 131.086 49.8555 130.086 48.957C129.094 48.0586 128.527 46.8945 128.387 45.4648ZM86.2109 78V62.8477H80.5508V60.8203H94.168V62.8477H88.4844V78H86.2109ZM96.5469 78V60.8203H104.164C105.695 60.8203 106.859 60.9766 107.656 61.2891C108.453 61.5938 109.09 62.1367 109.566 62.918C110.043 63.6992 110.281 64.5625 110.281 65.5078C110.281 66.7266 109.887 67.7539 109.098 68.5898C108.309 69.4258 107.09 69.957 105.441 70.1836C106.043 70.4727 106.5 70.7578 106.812 71.0391C107.477 71.6484 108.105 72.4102 108.699 73.3242L111.688 78H108.828L106.555 74.4258C105.891 73.3945 105.344 72.6055 104.914 72.0586C104.484 71.5117 104.098 71.1289 103.754 70.9102C103.418 70.6914 103.074 70.5391 102.723 70.4531C102.465 70.3984 102.043 70.3711 101.457 70.3711H98.8203V78H96.5469ZM98.8203 68.4023H103.707C104.746 68.4023 105.559 68.2969 106.145 68.0859C106.73 67.8672 107.176 67.5234 107.48 67.0547C107.785 66.5781 107.938 66.0625 107.938 65.5078C107.938 64.6953 107.641 64.0273 107.047 63.5039C106.461 62.9805 105.531 62.7188 104.258 62.7188H98.8203V68.4023ZM112.109 78L118.754 69.0469L112.895 60.8203H115.602L118.719 65.2266C119.367 66.1406 119.828 66.8438 120.102 67.3359C120.484 66.7109 120.938 66.0586 121.461 65.3789L124.918 60.8203H127.391L121.355 68.918L127.859 78H125.047L120.723 71.8711C120.48 71.5195 120.23 71.1367 119.973 70.7227C119.59 71.3477 119.316 71.7773 119.152 72.0117L114.84 78H112.109Z" fill="#3183FF"/>
<path d="M89.6079 92.1655L90.9263 91.9897C91.0776 92.7368 91.334 93.2764 91.6953 93.6084C92.0615 93.9355 92.5059 94.0991 93.0283 94.0991C93.6484 94.0991 94.1709 93.8843 94.5957 93.4546C95.0254 93.0249 95.2402 92.4927 95.2402 91.8579C95.2402 91.2524 95.0425 90.7544 94.647 90.3638C94.2515 89.9683 93.7485 89.7705 93.1382 89.7705C92.8892 89.7705 92.5791 89.8193 92.208 89.917L92.3545 88.7598C92.4424 88.7695 92.5132 88.7744 92.5669 88.7744C93.1284 88.7744 93.6338 88.6279 94.083 88.335C94.5322 88.042 94.7568 87.5903 94.7568 86.98C94.7568 86.4966 94.5933 86.0962 94.2661 85.7788C93.939 85.4614 93.5166 85.3027 92.999 85.3027C92.4863 85.3027 92.0591 85.4639 91.7173 85.7861C91.3755 86.1084 91.1558 86.5918 91.0581 87.2363L89.7397 87.002C89.9009 86.1182 90.2671 85.4346 90.8384 84.9512C91.4097 84.4629 92.1201 84.2188 92.9697 84.2188C93.5557 84.2188 94.0952 84.3457 94.5884 84.5996C95.0815 84.8486 95.4575 85.1904 95.7163 85.625C95.98 86.0596 96.1118 86.521 96.1118 87.0093C96.1118 87.4731 95.9873 87.8955 95.7383 88.2764C95.4893 88.6572 95.1206 88.96 94.6323 89.1846C95.2671 89.3311 95.7603 89.6362 96.1118 90.1001C96.4634 90.5591 96.6392 91.1353 96.6392 91.8286C96.6392 92.7661 96.2974 93.562 95.6138 94.2163C94.9302 94.8657 94.0659 95.1904 93.021 95.1904C92.0786 95.1904 91.2949 94.9097 90.6699 94.3481C90.0498 93.7866 89.6958 93.0591 89.6079 92.1655ZM102.176 95V92.4292H97.5181V91.2207L102.418 84.2627H103.495V91.2207H104.945V92.4292H103.495V95H102.176ZM102.176 91.2207V86.3794L98.8145 91.2207H102.176ZM106.549 86.8408C106.549 86.0742 106.742 85.4224 107.127 84.8853C107.513 84.3481 108.072 84.0796 108.805 84.0796C109.479 84.0796 110.035 84.3213 110.475 84.8047C110.919 85.2832 111.141 85.9888 111.141 86.9214C111.141 87.8296 110.917 88.5303 110.467 89.0234C110.023 89.5117 109.474 89.7559 108.819 89.7559C108.17 89.7559 107.628 89.5142 107.193 89.0308C106.764 88.5474 106.549 87.8174 106.549 86.8408ZM108.841 84.9878C108.514 84.9878 108.241 85.1294 108.021 85.4126C107.806 85.6958 107.699 86.2158 107.699 86.9727C107.699 87.6611 107.809 88.147 108.028 88.4302C108.248 88.7085 108.519 88.8477 108.841 88.8477C109.173 88.8477 109.447 88.7061 109.662 88.4229C109.881 88.1396 109.991 87.6221 109.991 86.8701C109.991 86.1768 109.881 85.6909 109.662 85.4126C109.442 85.1294 109.168 84.9878 108.841 84.9878ZM108.849 95.3955L114.723 84.0796H115.792L109.94 95.3955H108.849ZM113.492 92.4805C113.492 91.709 113.685 91.0571 114.071 90.5249C114.457 89.9878 115.018 89.7192 115.755 89.7192C116.429 89.7192 116.986 89.9609 117.425 90.4443C117.87 90.9229 118.092 91.6284 118.092 92.561C118.092 93.4692 117.867 94.1699 117.418 94.6631C116.974 95.1514 116.422 95.3955 115.763 95.3955C115.113 95.3955 114.571 95.1538 114.137 94.6704C113.707 94.1821 113.492 93.4521 113.492 92.4805ZM115.792 90.6274C115.46 90.6274 115.184 90.769 114.964 91.0522C114.75 91.3354 114.642 91.8555 114.642 92.6123C114.642 93.2959 114.752 93.7793 114.972 94.0625C115.191 94.3457 115.462 94.4873 115.785 94.4873C116.122 94.4873 116.397 94.3457 116.612 94.0625C116.832 93.7793 116.942 93.2617 116.942 92.5098C116.942 91.8164 116.832 91.3306 116.612 91.0522C116.393 90.769 116.119 90.6274 115.792 90.6274Z" fill="white"/>
<path d="M67.3125 368.406C67.3125 369.516 67.6172 370.398 68.2266 371.055C68.8359 371.711 69.6641 372.039 70.7109 372.039C71.7578 372.039 72.5781 371.727 73.1719 371.102C73.7812 370.477 74.0859 369.578 74.0859 368.406C74.0859 367.312 73.7734 366.398 73.1484 365.664C72.5391 364.914 71.7266 364.539 70.7109 364.539C69.6172 364.539 68.7734 364.898 68.1797 365.617C67.6016 366.336 67.3125 367.266 67.3125 368.406ZM65.2969 368.406C65.2969 366.781 65.7812 365.461 66.75 364.445C67.7188 363.414 69.0312 362.898 70.6875 362.898C72.5312 362.898 73.8906 363.5 74.7656 364.703C75.6406 365.906 76.0781 367.766 76.0781 370.281C76.0781 376.25 74.1953 379.234 70.4297 379.234C69.6641 379.234 68.9922 379.125 68.4141 378.906C67.8516 378.688 67.4375 378.422 67.1719 378.109C66.9062 377.797 66.6953 377.484 66.5391 377.172C66.3984 376.844 66.3125 376.57 66.2812 376.352L66.2578 376.023H68.0156C68.0156 376.07 68.0234 376.133 68.0391 376.211C68.0547 376.273 68.1094 376.398 68.2031 376.586C68.3125 376.758 68.4453 376.914 68.6016 377.055C68.7578 377.195 68.9922 377.32 69.3047 377.43C69.6328 377.539 70.0078 377.594 70.4297 377.594C72.6016 377.594 73.8047 375.672 74.0391 371.828C73.2266 373.062 71.9844 373.68 70.3125 373.68C68.9531 373.68 67.7734 373.188 66.7734 372.203C65.7891 371.219 65.2969 369.953 65.2969 368.406ZM80.4375 370.938C80.4375 373.172 80.75 374.844 81.375 375.953C82.0156 377.047 82.9141 377.594 84.0703 377.594C85.2266 377.594 86.1172 377.047 86.7422 375.953C87.3828 374.844 87.7031 373.172 87.7031 370.938C87.7031 368.75 87.375 367.141 86.7188 366.109C86.0781 365.062 85.1953 364.539 84.0703 364.539C82.9453 364.539 82.0547 365.062 81.3984 366.109C80.7578 367.141 80.4375 368.75 80.4375 370.938ZM78.4219 370.938C78.4219 368.172 78.9297 366.141 79.9453 364.844C80.9609 363.547 82.3281 362.898 84.0469 362.898C85.7812 362.898 87.1562 363.547 88.1719 364.844C89.2031 366.141 89.7188 368.172 89.7188 370.938C89.7188 373.75 89.2109 375.836 88.1953 377.195C87.1953 378.555 85.8125 379.234 84.0469 379.234C82.2812 379.234 80.8984 378.555 79.8984 377.195C78.9141 375.836 78.4219 373.75 78.4219 370.938ZM100.172 370.938C100.172 373.172 100.484 374.844 101.109 375.953C101.75 377.047 102.648 377.594 103.805 377.594C104.961 377.594 105.852 377.047 106.477 375.953C107.117 374.844 107.438 373.172 107.438 370.938C107.438 368.75 107.109 367.141 106.453 366.109C105.812 365.062 104.93 364.539 103.805 364.539C102.68 364.539 101.789 365.062 101.133 366.109C100.492 367.141 100.172 368.75 100.172 370.938ZM98.1562 370.938C98.1562 368.172 98.6641 366.141 99.6797 364.844C100.695 363.547 102.062 362.898 103.781 362.898C105.516 362.898 106.891 363.547 107.906 364.844C108.938 366.141 109.453 368.172 109.453 370.938C109.453 373.75 108.945 375.836 107.93 377.195C106.93 378.555 105.547 379.234 103.781 379.234C102.016 379.234 100.633 378.555 99.6328 377.195C98.6484 375.836 98.1562 373.75 98.1562 370.938ZM111.797 375.133H113.789C113.789 375.742 114.125 376.305 114.797 376.82C115.484 377.336 116.281 377.594 117.188 377.594C118.156 377.594 118.961 377.328 119.602 376.797C120.242 376.25 120.562 375.5 120.562 374.547C120.562 373.625 120.203 372.938 119.484 372.484C118.766 372.016 117.867 371.781 116.789 371.781H114.867V369.906H116.789C117.805 369.906 118.625 369.648 119.25 369.133C119.891 368.602 120.211 367.883 120.211 366.977C120.211 366.289 119.922 365.711 119.344 365.242C118.766 364.773 118.047 364.539 117.188 364.539C116.281 364.539 115.547 364.773 114.984 365.242C114.438 365.695 114.164 366.375 114.164 367.281H112.172C112.172 366.016 112.625 364.969 113.531 364.141C114.438 363.312 115.656 362.898 117.188 362.898C118.672 362.898 119.883 363.328 120.82 364.188C121.758 365.031 122.227 365.961 122.227 366.977C122.227 368.93 121.32 370.18 119.508 370.727C121.555 371.367 122.578 372.641 122.578 374.547C122.578 375.938 122.094 377.07 121.125 377.945C120.172 378.805 118.859 379.234 117.188 379.234C115.594 379.234 114.297 378.797 113.297 377.922C112.297 377.047 111.797 376.117 111.797 375.133ZM124.922 375.133H126.914C126.914 375.742 127.25 376.305 127.922 376.82C128.609 377.336 129.406 377.594 130.312 377.594C131.281 377.594 132.086 377.328 132.727 376.797C133.367 376.25 133.688 375.5 133.688 374.547C133.688 373.625 133.328 372.938 132.609 372.484C131.891 372.016 130.992 371.781 129.914 371.781H127.992V369.906H129.914C130.93 369.906 131.75 369.648 132.375 369.133C133.016 368.602 133.336 367.883 133.336 366.977C133.336 366.289 133.047 365.711 132.469 365.242C131.891 364.773 131.172 364.539 130.312 364.539C129.406 364.539 128.672 364.773 128.109 365.242C127.562 365.695 127.289 366.375 127.289 367.281H125.297C125.297 366.016 125.75 364.969 126.656 364.141C127.562 363.312 128.781 362.898 130.312 362.898C131.797 362.898 133.008 363.328 133.945 364.188C134.883 365.031 135.352 365.961 135.352 366.977C135.352 368.93 134.445 370.18 132.633 370.727C134.68 371.367 135.703 372.641 135.703 374.547C135.703 375.938 135.219 377.07 134.25 377.945C133.297 378.805 131.984 379.234 130.312 379.234C128.719 379.234 127.422 378.797 126.422 377.922C125.422 377.047 124.922 376.117 124.922 375.133ZM80.5195 388.008V386.133H92.3555V388.008H87.4336V402H85.4414V388.008H80.5195ZM96.457 394.031H99.3164C100.598 394.016 101.629 393.773 102.41 393.305C103.191 392.836 103.582 392.109 103.582 391.125C103.582 390.047 103.176 389.258 102.363 388.758C101.566 388.258 100.488 388.008 99.1289 388.008H96.457V394.031ZM94.4648 402V386.133H99.1523C101.199 386.133 102.801 386.547 103.957 387.375C105.129 388.203 105.715 389.453 105.715 391.125C105.715 393.438 104.504 394.922 102.082 395.578L105.715 402H103.348L99.8789 395.883C99.7227 395.898 99.4805 395.906 99.1523 395.906H96.457V402H94.4648ZM107.121 402L112.488 394.078L107.309 386.133H109.512L113.801 392.766L118.09 386.133H120.293L115.113 394.078L120.48 402H118.02L113.871 395.555L109.441 402H107.121Z" fill="#FF6231"/>
<path d="M89.3013 416.704C89.3013 417.388 89.4917 417.964 89.8726 418.433C90.2632 418.892 90.7759 419.121 91.4106 419.121C92.0942 419.121 92.6167 418.896 92.978 418.447C93.3491 417.998 93.5347 417.417 93.5347 416.704C93.5347 416.011 93.3442 415.459 92.9634 415.049C92.5825 414.639 92.0649 414.434 91.4106 414.434C90.7563 414.434 90.2388 414.629 89.8579 415.02C89.4868 415.41 89.3013 415.972 89.3013 416.704ZM88.0562 415.532C88.0562 411.802 89.2329 409.937 91.5864 409.937C92.0649 409.937 92.48 410.005 92.8315 410.142C93.1929 410.278 93.4565 410.449 93.6226 410.654C93.7886 410.85 93.9155 411.045 94.0034 411.24C94.1011 411.436 94.1597 411.602 94.1792 411.738L94.1938 411.943H93.0952C93.0952 411.914 93.0903 411.88 93.0806 411.841C93.0708 411.792 93.0317 411.714 92.9634 411.606C92.9048 411.489 92.8267 411.387 92.729 411.299C92.6313 411.211 92.48 411.133 92.2749 411.064C92.0796 410.996 91.8501 410.962 91.5864 410.962C90.229 410.962 89.4771 412.168 89.3306 414.58C89.8384 413.799 90.6147 413.408 91.6597 413.408C92.5093 413.408 93.2417 413.716 93.8569 414.331C94.4819 414.946 94.7944 415.737 94.7944 416.704C94.7944 417.72 94.4917 418.55 93.8862 419.194C93.2808 419.829 92.4604 420.146 91.4253 420.146C90.2729 420.146 89.4233 419.771 88.8765 419.019C88.3296 418.267 88.0562 417.104 88.0562 415.532ZM97.5044 416.704C97.5044 417.388 97.6948 417.964 98.0757 418.433C98.4663 418.892 98.979 419.121 99.6138 419.121C100.297 419.121 100.82 418.896 101.181 418.447C101.552 417.998 101.738 417.417 101.738 416.704C101.738 416.011 101.547 415.459 101.167 415.049C100.786 414.639 100.268 414.434 99.6138 414.434C98.9595 414.434 98.4419 414.629 98.061 415.02C97.6899 415.41 97.5044 415.972 97.5044 416.704ZM96.2593 415.532C96.2593 411.802 97.436 409.937 99.7896 409.937C100.268 409.937 100.683 410.005 101.035 410.142C101.396 410.278 101.66 410.449 101.826 410.654C101.992 410.85 102.119 411.045 102.207 411.24C102.304 411.436 102.363 411.602 102.382 411.738L102.397 411.943H101.298C101.298 411.914 101.293 411.88 101.284 411.841C101.274 411.792 101.235 411.714 101.167 411.606C101.108 411.489 101.03 411.387 100.932 411.299C100.834 411.211 100.683 411.133 100.478 411.064C100.283 410.996 100.053 410.962 99.7896 410.962C98.4321 410.962 97.6802 412.168 97.5337 414.58C98.0415 413.799 98.8179 413.408 99.8628 413.408C100.712 413.408 101.445 413.716 102.06 414.331C102.685 414.946 102.998 415.737 102.998 416.704C102.998 417.72 102.695 418.55 102.089 419.194C101.484 419.829 100.664 420.146 99.6284 420.146C98.4761 420.146 97.6265 419.771 97.0796 419.019C96.5327 418.267 96.2593 417.104 96.2593 415.532ZM109.838 417.832C109.838 418.252 109.941 418.594 110.146 418.857C110.361 419.121 110.639 419.253 110.981 419.253C111.323 419.253 111.596 419.121 111.801 418.857C112.006 418.594 112.109 418.252 112.109 417.832C112.109 417.422 112.006 417.095 111.801 416.851C111.596 416.597 111.323 416.47 110.981 416.47C110.629 416.47 110.351 416.597 110.146 416.851C109.941 417.095 109.838 417.422 109.838 417.832ZM109.428 419.502C109.047 419.072 108.857 418.516 108.857 417.832C108.857 417.148 109.047 416.602 109.428 416.191C109.819 415.781 110.332 415.576 110.966 415.576C111.601 415.576 112.114 415.781 112.504 416.191C112.895 416.602 113.09 417.148 113.09 417.832C113.09 418.516 112.895 419.072 112.504 419.502C112.114 419.932 111.601 420.146 110.966 420.146C110.332 420.146 109.819 419.932 109.428 419.502ZM105.297 412.192C105.297 412.612 105.4 412.954 105.605 413.218C105.82 413.481 106.098 413.613 106.44 413.613C106.782 413.613 107.055 413.481 107.26 413.218C107.465 412.954 107.568 412.612 107.568 412.192C107.568 411.782 107.465 411.455 107.26 411.211C107.055 410.957 106.782 410.83 106.44 410.83C106.088 410.83 105.81 410.957 105.605 411.211C105.4 411.455 105.297 411.782 105.297 412.192ZM104.638 420L111.376 410.083H112.563L105.825 420H104.638ZM104.887 413.862C104.506 413.433 104.316 412.876 104.316 412.192C104.316 411.509 104.506 410.962 104.887 410.552C105.278 410.142 105.791 409.937 106.425 409.937C107.06 409.937 107.573 410.142 107.963 410.552C108.354 410.962 108.549 411.509 108.549 412.192C108.549 412.866 108.354 413.423 107.963 413.862C107.573 414.292 107.06 414.507 106.425 414.507C105.791 414.507 105.278 414.292 104.887 413.862Z" fill="white"/>
<circle cx="105.5" cy="220.524" r="105.5" fill="#FF6231"/>
<path d="M10.0003 265.524L105.5 220.524V115.024C105.5 115.024 43.5001 112.024 11.0002 173.524C-12.4998 223.024 10.0003 265.524 10.0003 265.524Z" fill="#3183FF"/>
<g style="mix-blend-mode:overlay" opacity="0.2" filter="url(#filter0_f_539_33)">
<path d="M77.0001 130.121L105.171 219.96L131.528 313.172C131.528 313.172 214.376 288.493 195.31 194.526C161.143 105.057 77.0001 130.121 77.0001 130.121Z" fill="white"/>
</g>
<defs>
<filter id="filter0_f_539_33" x="57.0002" y="106.889" width="161.16" height="226.283" filterUnits="userSpaceOnUse" color-interpolation-filters="sRGB">
<feFlood flood-opacity="0" result="BackgroundImageFix"/>
<feBlend mode="normal" in="SourceGraphic" in2="BackgroundImageFix" result="shape"/>
<feGaussianBlur stdDeviation="10" result="effect1_foregroundBlur_539_33"/>
</filter>
</defs>
</svg>
